<svg width="414" height="410" viewBox="0 0 414 410" fill="none" xmlns="http://www.w3.org/2000/svg">
<path d="M112.873 218.869C124.633 199.458 165.494 175.437 198.721 199.151M341.775 166.883C321.384 153.063 281.26 158.328 266.117 187.429M148.392 286.802C185.885 380.094 350.325 335.346 337.611 236.615C337.611 236.615 301.651 254.111 250.345 267.719C199.04 281.326 148.392 286.802 148.392 286.802ZM407.625 194.371C418.264 316.681 320.342 403.506 209.62 404.975C98.899 406.445 23.4424 342.204 6.89978 229.259C-9.64287 116.315 84.42 14.8468 189.001 5.74157C293.583 -3.36362 396.986 72.0609 407.625 194.371Z" stroke="#646464" stroke-width="10"/>
</svg>
